<svg id="Calque_1" data-name="Calque 1" xmlns="http://www.w3.org/2000/svg" viewBox="0 0 974.32 527.96"><defs><style>.cls-1{fill:#1d1d1b;}</style></defs><title>biglogo</title><path class="cls-1" d="M119,439.46q-43.8,0-75-31.17t-31.17-75q0-43.81,31.17-75t75-31.17v21.06q-35.1,0-60.09,25t-25,60.1a81.76,81.76,0,0,0,21.48,56.3q21.48,24,52.93,27.93v-39H79.67V357.18h50v82.28Z" transform="translate(-12.84 -82.11)"/><path class="cls-1" d="M176.41,411.66q-30.19-27.8-34.12-67.67H126V322.64h16.29q3.93-40.14,34.12-67.81t71.46-27.66v21.06a81.74,81.74,0,0,0-56.3,21.48q-24,21.48-27.94,52.93H235.8V344H163.63q3.93,31.17,27.94,52.65a81.74,81.74,0,0,0,56.3,21.48v21.34Q206.59,439.46,176.41,411.66Z" transform="translate(-12.84 -82.11)"/><path class="cls-1" d="M312.36,248.23V439.46H291.3V248.23H251V227.17H503.14L491.86,233l-8.71,5-4.63,3.54-2.44,2-1.46,1.95-1,2.79Z" transform="translate(-12.84 -82.11)"/><path class="cls-1" d="M440.45,339.28a8.35,8.35,0,0,1,2.34,1.87c.7,1.64,2.1,8-16.85,59.44-.47,1.17-2.34,1.87-3.74,1.87-1.41-.94-2.58-2.81-1.88-4,6.09-16.61,12.41-35.56,15.45-46.56l-.94-.47-13.57,20.36-1.17,1.87c-9.59,14.74-10.76,16.61-13.34,16.61a3.76,3.76,0,0,1-2.57-1.17v.24c-1.4-2.11-.94-3.75,2.81-14.51,2.34-6.56,6.78-20.59,7.72-29.25-7.72,9.12-24.57,40.48-38.84,69.26a2.9,2.9,0,0,1-2.58,1.64c-.93,0-.93-.24-1.17-.24l.24.24a4,4,0,0,1-2.11-3.51c4.91-21.06,10.76-43.52,16.15-64.35.7-1.4,2.1-3,3.51-2.57a3.16,3.16,0,0,1,2.34,3.74l-8.19,33.46.93.47c23.4-45.16,29-44.69,30.89-44.69a4.72,4.72,0,0,1,3.51,2.1c2.57,3.51,1.17,11.47-3.51,26l.93.46c16.38-24.8,19.89-29,23.4-28.31Z" transform="translate(-12.84 -82.11)"/><path class="cls-1" d="M513.92,362.68c-8.42,5.15-22.7,16.38-38.37,29.25-3.75,9.13-8.19,19.89-12.64,29.25-21.06,45.63-39.78,69.73-54.75,69.73a17.57,17.57,0,0,1-4.21-.47c-6.79-2.11-8.89-6.56-9.36-9.83-2.11-19.65,40.48-62,75.81-91.72L477,372l-.7-.7c-9.83,11.7-19.89,18.25-26.21,18.72a8,8,0,0,1-7.25-3.28c-3-4.91-.94-14.51,5.85-27.61a3.08,3.08,0,0,1,4-1.4c1.63.7,1.87,2.57,1.4,4.21-7.72,15-6.32,21.29-6.08,22h1.64c7.48-.46,25.5-15.2,37.67-40.71a3.24,3.24,0,0,1,4-1.41,3,3,0,0,1,1.41,4c0,.24-5.15,15.21-12.64,35.1,15-11.93,26.21-20.36,30.89-23.16a3.37,3.37,0,0,1,4.44.93A2.88,2.88,0,0,1,513.92,362.68Zm-49.6,40.48-.71-.7c-32.05,28.08-64.58,62.94-62.94,77.22.24,1.87.94,4,4.91,5.14C421.5,489.27,445.13,448.56,464.32,403.16Z" transform="translate(-12.84 -82.11)"/><path class="cls-1" d="M796.86,138.49l-2.45.82C781.3,143.4,707.86,165,641.79,186.54L615,195.28,549.5,466.12a3.49,3.49,0,0,1-3.28,3v.27c-2.45-.54-4.09-2.46-3.54-4.09L607.38,198c-104,35.49-122,48.6-124.77,53,1.64.82,6.28,2.45,19.66,2.45,4.91,0,12-.27,19.38-.81a3.84,3.84,0,0,1,3.82,3.55h-.27a3.34,3.34,0,0,1-3,3.54c-7.65.55-13.93.55-19.39.55-21,0-26.48-3.28-27.3-7.92-1.09-6.28-3-17.74,159.45-71.26,71-23.21,143.61-44.5,157.81-48.6l2.46-.82c1.63-.54,3.55.82,4.36,2.73C800.14,136.3,798.78,137.94,796.86,138.49Z" transform="translate(-12.84 -82.11)"/><path class="cls-1" d="M617.47,336.16c-4.64-2.73-7.92-8.19-7.92-15a33.39,33.39,0,0,1,3.28-14.48l1.37-3c10.92-23.75,26.75-32.22,34.12-31.12a6.76,6.76,0,0,1,6.56,5.73c1.09,8.46-12,19.93-35.22,29.49,0,.27-.28.82-.28,1.09l.28-.27c-2.19,5.18-3,9.28-3,12.28,0,4.64,1.64,7.92,4.1,9,5.18,2.46,19.11-4.09,34.13-26.75a4.18,4.18,0,0,1,4.91-1.1c1.64,1.1,1.64,3.28,1.09,4.92-13.92,21-28.12,30.3-37.13,30.3A16.1,16.1,0,0,1,617.47,336.16Zm29.21-57.06a17.25,17.25,0,0,0-3.55,1.09c-4.91,1.64-11.19,6.83-17.2,15.84l.83.82c15.56-8.2,20.2-14.47,21-16.66Z" transform="translate(-12.84 -82.11)"/><path class="cls-1" d="M721.22,280.46a9.69,9.69,0,0,1,2.72,2.19c.83,1.91,2.46,9.28-19.65,69.35-.55,1.36-2.73,2.18-4.37,2.18-1.64-1.09-3-3.27-2.19-4.64,7.1-19.39,14.48-41.5,18-54.33l-1.1-.55-15.83,23.75-1.37,2.19C686.27,337.8,684.9,340,681.9,340a4.37,4.37,0,0,1-3-1.36v.27c-1.64-2.46-1.1-4.37,3.27-16.93,2.73-7.64,7.92-24,9-34.12-9,10.64-28.67,47.23-45.32,80.81a3.37,3.37,0,0,1-3,1.91,3.32,3.32,0,0,1-1.37-.27l.27.27a4.69,4.69,0,0,1-2.45-4.09c5.73-24.57,12.56-50.78,18.84-75.08.81-1.64,2.45-3.55,4.09-3a3.68,3.68,0,0,1,2.73,4.37l-9.56,39,1.1.55c27.3-52.69,33.85-52.15,36-52.15a5.49,5.49,0,0,1,4.09,2.46c3,4.09,1.37,13.38-4.09,30.3l1.09.55c19.11-28.94,23.21-33.85,27.3-33Z" transform="translate(-12.84 -82.11)"/><path class="cls-1" d="M780.72,291.39c-3,18.83-19.65,51.33-33.85,50.78-4.64-.27-8.19-4.37-10.65-12-7.1,16.93-15.29,38.5-22.11,59.53l-12,39a3.41,3.41,0,0,1-3.27,2.45h-.55c-2.18-.54-3.55-2.45-2.73-4.09,0-.27,3.82-13.65,9.83-32.22L749.05,251.8c1.1-1.64,3-3,4.65-2.46a3.31,3.31,0,0,1,2.45,4.37l-13.65,44.5,1.09.27c13.11-23.2,21.3-25.93,26.76-25.12C773.35,273.91,780.45,279.37,780.72,291.39ZM769,280.19v.27c-4.36-.81-26.75,25.94-26.75,43.69,0,4.37,1.36,8.19,4.64,10.92,7.1,0,24.57-25.12,26.48-44.23C774.17,280.74,770.62,280.19,769,280.19Z" transform="translate(-12.84 -82.11)"/><path class="cls-1" d="M839.7,302.85c1.08,1.09,2.18,2.73,1.63,3.28-3.55,4.37-9.83,15.29-16.66,27-27.3,46.69-41.77,68.53-52.69,68.53a4.32,4.32,0,0,1-4.09-2.73c-2.19-2.73-6.56-8.74,29.21-129.42,13.11-43.68,27-86.55,33.31-106.48L834,151.87c.55-1.37,3-2.46,4.37-2.46,1.91.82,3.28,2.73,2.73,4.37-34.4,103.48-68.26,219.78-67.71,240.81,11.19-6.55,34.67-47.23,45.32-65,7.1-12.56,12.83-22.12,16.11-26.48v.27a4,4,0,0,1,5.19-.55Z" transform="translate(-12.84 -82.11)"/><path class="cls-1" d="M899.48,307C897,311.59,878.73,344.9,861,344.9a5.57,5.57,0,0,1-4.92-3.82,57,57,0,0,1,1.92-17.2l-.82-.82c-5.46,5.73-12,9.55-19.11,9.55-4.92,0-8.47-2.46-9.56-7.1-2.73-9.55,7.37-27,17.47-34.12,3.28-1.91,7.38-3.28,10.38-3.28,3.55,0,7.1,1.09,11.2,4.37l2.18-5.19a3.68,3.68,0,0,0,.27-1.36,10.19,10.19,0,0,1,1.64-2.19h-.27c1.09-.55,2.45-1.09,3-.55,3.28,1.92,2.45,4.1,2.18,5.19l-2.45,6.83c-4.1,12-11.75,34.67-11.75,42.86,10.93-3,24.31-22.38,30.86-34.4.82-1.91,3-2.18,4.64-1.64C899.75,302.85,900,305,899.48,307Zm-34.68-8.19c-3.27-2.19-6-3.55-8.74-3.55a14.32,14.32,0,0,0-6.55,2.18c-8.73,5.74-15.28,20.48-13.92,26.76.27,1.09.54,1.64,2.46,1.64C848.15,325.79,857.7,312.68,864.8,298.76Z" transform="translate(-12.84 -82.11)"/><path class="cls-1" d="M924.86,222C899.47,303.13,879,378.21,879.27,394.59c11.19-6.55,34.94-47.23,45.32-65,7.1-12.56,12.83-22.12,16.11-26.48v.27a4.09,4.09,0,0,1,5.19-.55h-.28c1.1,1.09,2.19,2.73,1.64,3.28-3.28,4.37-9.83,15.29-16.66,27-27.3,46.69-41.77,68.53-52.69,68.53a4.34,4.34,0,0,1-4.1-2.73c-2.18-2.73-2.45-21.3,29.22-129.42l13.92-45.05-81.36,22.94H835a3.24,3.24,0,0,1-3.27-2.73c-.55-1.37.82-3.28,2.46-4.1l85.46-24c7.37-24.29,13.92-45,17.47-56,1.64-5.46,2.73-8.73,2.73-8.73.54-1.64,3-2.73,4.64-2.46a6,6,0,0,1,2.46,4.37c-6.83,19.38-13.38,40.68-19.39,60.34l48.6-13.93a6.39,6.39,0,0,1,4.37,2.73,5.84,5.84,0,0,1-2.73,4.37Z" transform="translate(-12.84 -82.11)"/><path class="cls-1" d="M943.42,336.16c-4.64-2.73-7.92-8.19-7.92-15a33.39,33.39,0,0,1,3.28-14.48l1.36-3c10.93-23.75,26.76-32.22,34.13-31.12a6.76,6.76,0,0,1,6.56,5.73c1.09,8.46-12,19.93-35.23,29.49,0,.27-.27.82-.27,1.09l.27-.27c-2.18,5.18-3,9.28-3,12.28,0,4.64,1.64,7.92,4.1,9,5.18,2.46,19.11-4.09,34.13-26.75a4.18,4.18,0,0,1,4.91-1.1c1.64,1.1,1.64,3.28,1.09,4.92-13.92,21-28.12,30.3-37.13,30.3A16.14,16.14,0,0,1,943.42,336.16Zm29.21-57.06a17.25,17.25,0,0,0-3.55,1.09c-4.91,1.64-11.19,6.83-17.2,15.84l.82.82c15.57-8.2,20.21-14.47,21-16.66Z" transform="translate(-12.84 -82.11)"/><path class="cls-1" d="M940.17,404.28A185,185,0,0,1,911.5,456.9,274.89,274.89,0,0,1,869.3,500c-31.24,25.54-66.9,45.26-104,60.75-74.49,31.07-155,45.54-235.26,48.86-80.35,2.79-161.41-5.78-238.6-28.73-38.53-11.49-76-26.76-111-46.66-4.46-2.3-8.56-5.28-12.85-7.88S159,521,154.87,518.16l-12.18-8.88-6.08-4.43c-2-1.55-3.86-3.22-5.79-4.82l-11.5-9.7c-3.71-3.37-7.2-7-10.79-10.48l-5.31-5.31c-1.75-1.78-3.28-3.79-4.92-5.67l-9.67-11.46c26.83,29.64,59.25,53.6,94.55,71.74,35.16,18.45,72.55,32.33,110.75,42.91a733.47,733.47,0,0,0,116.83,21.78,801.73,801.73,0,0,0,118.81,4c19.81-.66,39.61-2.06,59.31-4.32s39.32-5.11,58.78-8.86,38.79-8.18,57.87-13.53,37.87-11.68,56.32-18.89c36.81-14.51,72.38-32.77,103.91-56.79A270.79,270.79,0,0,0,909.1,455,198.38,198.38,0,0,0,940.17,404.28Z" transform="translate(-12.84 -82.11)"/><path class="cls-1" d="M125.35,198.08c39.4-35.17,87.42-59.93,137.09-78C287.32,111,313,104.23,338.83,98.33l19.47-4,19.6-3.25c6.52-1.18,13.1-2,19.67-2.8s13.12-1.84,19.72-2.37l19.79-1.69c6.6-.62,13.22-.74,19.83-1.13,13.22-.84,26.46-.8,39.69-1a753.76,753.76,0,0,1,79.21,4.56c52.55,5.86,104.53,17.53,153.76,36.25q-19-5.22-38.2-9.73c-12.81-2.84-25.64-5.51-38.58-7.61C627,101,601,97.92,575,95.76a886.93,886.93,0,0,0-156.48,1.77,750.23,750.23,0,0,0-153.09,31.19,582.68,582.68,0,0,0-72.69,29A399.62,399.62,0,0,0,125.35,198.08Z" transform="translate(-12.84 -82.11)"/></svg>